<?xml version="1.0" encoding="utf-8"?>
<!-- Generator: Adobe Illustrator 27.6.1, SVG Export Plug-In . SVG Version: 6.00 Build 0)  -->
<svg version="1.1" id="Calque_1" xmlns="http://www.w3.org/2000/svg" xmlns:xlink="http://www.w3.org/1999/xlink" x="0px" y="0px"
	 viewBox="0 0 157 158.3" style="enable-background:new 0 0 157 158.3;" xml:space="preserve">
<style type="text/css">
	.st0{fill:#B3E3F2;}
	.st1{fill:#43BCF9;}
	.st2{fill:#049EFF;}
	.st3{fill:#0083C4;}
	.st4{fill:#92E0FF;}
	.st5{display:none;}
	.st6{display:inline;}
	.st7{fill:#FFE999;}
	.st8{fill:#FFD63D;}
	.st9{fill:#FFA600;}
	.st10{fill:#FE9600;}
	.st11{fill:#F06083;}
	.st12{fill:#DE2752;}
	.st13{fill:#981241;}
	.st14{fill:#7A0E37;}
	.st15{display:inline;fill:#F06083;}
	.st16{display:inline;fill:#DE2752;}
	.st17{display:inline;fill:#981241;}
	.st18{display:inline;fill:#7A0E37;}
	.st19{display:inline;fill:#FFD63D;}
	.st20{display:inline;fill:#FFA600;}
</style>
<g id="Calque_4">
	<g>
		<g>
			<g>
				<path class="st0" d="M118.2,158.3H38.8C17.4,158.3,0,140.9,0,119.5V40.1C0,18.7,17.4,1.3,38.8,1.3h79.4
					c21.4,0,38.8,17.4,38.8,38.8v79.4C157,140.9,139.6,158.3,118.2,158.3z"/>
			</g>
			<g>
				<path class="st1" d="M118.2,158.3H36.9C18.7,158.3,4,143.6,4,125.4V46.1C4,24.7,21.4,7.3,42.8,7.3h82.9
					c17.3,0,31.3,14,31.3,31.3v80.9C157,140.9,139.6,158.3,118.2,158.3z"/>
			</g>
			<path class="st2" d="M116,143.8H41c-14.7,0-26.5-11.9-26.5-26.5V42.4c0-14.7,11.9-26.5,26.5-26.5H116c14.7,0,26.5,11.9,26.5,26.5
				v74.9C142.5,131.9,130.6,143.8,116,143.8z"/>
			<path class="st3" d="M22,124.8V49.9c0-14.7,11.9-26.5,26.5-26.5h74.9c5.4,0,10.4,1.6,14.6,4.4c-4.8-7.2-12.9-11.9-22.1-11.9H41
				c-14.7,0-26.5,11.9-26.5,26.5v74.9c0,9.2,4.7,17.4,11.9,22.1C23.6,135.2,22,130.2,22,124.8z"/>
		</g>
		<path class="st3" d="M103.9,96.6c0,12.2-9.9,22.2-22.2,22.2s-22.2-9.9-22.2-22.2c0-10.2,15.3-38.5,20.5-47.8
			c0.7-1.3,2.6-1.3,3.4,0C88.6,58.1,103.9,86.5,103.9,96.6z"/>
		<g>
			<g>
				<path class="st4" d="M100.7,93.1c0,12.2-9.9,22.2-22.2,22.2s-22.2-9.9-22.2-22.2c0-10.2,15.3-38.5,20.5-47.8
					c0.7-1.3,2.6-1.3,3.4,0C85.4,54.6,100.7,83,100.7,93.1z"/>
			</g>
			<path class="st3" d="M97.5,92.3c0,11.1-9,20.2-20.2,20.2s8.4-9.9,8.4-21c0-6.7-3.1-21.9-5.5-32.9c-0.4-2,2.3-3,3.3-1.2
				C89.4,68.7,97.5,85.3,97.5,92.3z"/>
		</g>
	</g>
</g>
<g id="Calque_11" class="st5">
	<g class="st6">
		<g>
			<path class="st7" d="M250.8,44.3h-79.4c-21.4,0-38.8-17.4-38.8-38.8v-79.4c0-21.4,17.4-38.8,38.8-38.8h79.4
				c21.4,0,38.8,17.4,38.8,38.8V5.5C289.6,26.9,272.2,44.3,250.8,44.3z"/>
			<path class="st8" d="M250.8,44.3h-81.3c-18.2,0-32.9-14.7-32.9-32.9v-79.3c0-21.4,17.4-38.8,38.8-38.8h82.9
				c17.3,0,31.3,14,31.3,31.3V5.5C289.6,26.9,272.2,44.3,250.8,44.3z"/>
			<path class="st9" d="M248.6,29.8h-74.9c-14.7,0-26.5-11.9-26.5-26.5v-74.9c0-14.7,11.9-26.5,26.5-26.5h74.9
				c14.7,0,26.5,11.9,26.5,26.5V3.3C275.1,17.9,263.2,29.8,248.6,29.8z"/>
			<path class="st10" d="M154.6,10.8v-74.9c0-14.7,11.9-26.5,26.5-26.5H256c5.4,0,10.4,1.6,14.6,4.4c-4.8-7.2-12.9-11.9-22.1-11.9
				h-74.9c-14.7,0-26.5,11.9-26.5,26.5V3.3c0,9.2,4.7,17.4,11.9,22.1C156.2,21.2,154.6,16.2,154.6,10.8z"/>
		</g>
		<path class="st10" d="M238.9-43.6h-22.4c-0.5,0-1-0.5-1.2-1.2l-0.2-23.8c-0.3-1.5-1.8-1.7-2.3-0.3l-22.2,50.3
			c-0.5,1.2,0.1,2.6,1.1,2.6l23.4-0.4c0.5,0,1,0.5,1.2,1.2l0.3,25c0.3,1.5,1.8,1.7,2.3,0.3L240-41.1
			C240.4-42.3,239.8-43.6,238.9-43.6z"/>
		<g>
			<path class="st8" d="M234.7-48.4h-22.4c-0.5,0-1-0.5-1.2-1.2l-0.2-23.8c-0.3-1.5-1.8-1.7-2.3-0.3l-22.2,50.3
				c-0.5,1.2,0.1,2.6,1.1,2.6l23.4-0.4c0.5,0,1,0.5,1.2,1.2l0.3,25c0.3,1.5,1.8,1.7,2.3,0.3l21.1-51.2
				C236.2-47,235.6-48.4,234.7-48.4z"/>
			<g>
				<path class="st7" d="M217.9-21.4l-6.7,0.3c0.4,0.1,0.8,0.6,0.9,1.2l0.3,25c0.3,1.5,1.8,1.7,2.3,0.3l0.5-1.3L217.9-21.4z"/>
				<path class="st7" d="M210.9-65.8l0-7.6c-0.3-1.5-1.8-1.7-2.3-0.3l-22.2,50.3c-0.5,1.2,0.1,2.6,1.1,2.6l5.5-0.1L210.9-65.8z"/>
			</g>
		</g>
	</g>
</g>
<g id="Calque_12" class="st5">
	<g class="st6">
		<g>
			<path class="st11" d="M489.5,44.3h-79.4c-21.4,0-38.8-17.4-38.8-38.8v-79.4c0-21.4,17.4-38.8,38.8-38.8h79.4
				c21.4,0,38.8,17.4,38.8,38.8V5.5C528.3,26.9,510.9,44.3,489.5,44.3z"/>
			<path class="st12" d="M489.5,44.3h-81.3c-18.2,0-32.9-14.7-32.9-32.9v-79.3c0-21.4,17.4-38.8,38.8-38.8H497
				c17.3,0,31.3,14,31.3,31.3V5.5C528.3,26.9,510.9,44.3,489.5,44.3z"/>
			<path class="st13" d="M487.3,29.8h-74.9c-14.7,0-26.5-11.9-26.5-26.5v-74.9c0-14.7,11.9-26.5,26.5-26.5h74.9
				c14.7,0,26.5,11.9,26.5,26.5V3.3C513.8,17.9,501.9,29.8,487.3,29.8z"/>
			<path class="st14" d="M393.3,10.8v-74.9c0-14.7,11.9-26.5,26.5-26.5h74.9c5.4,0,10.4,1.6,14.6,4.4c-4.8-7.2-12.9-11.9-22.1-11.9
				h-74.9c-14.7,0-26.5,11.9-26.5,26.5V3.3c0,9.2,4.7,17.4,11.9,22.1C394.9,21.2,393.3,16.2,393.3,10.8z"/>
		</g>
		<path class="st14" d="M474.9-17.1c-0.6,10.8-8.8,18.4-21,18.4c-17.5,0-20.1-11.7-20.1-20.1s7.7-34.2,13.9-38.9
			c2.4-1.9,8.9,18.8,9.8,20.5c0.5,1,4.7-11.9,5.9-10.2C470.8-36.6,475.5-26.4,474.9-17.1z"/>
		<g>
			<path class="st8" d="M473.1-21c0,12.8-10.4,18.3-23.3,18.3S425-8.2,426.6-21c1.6-12.9,8.8-36.2,17-44.3c4-4,9.6,21.6,11.6,23.7
				c1.8,1.8,5.4-12.5,6.3-9.4C464.4-40.8,473.1-29.5,473.1-21z"/>
			<path class="st9" d="M473.1-21.1c-0.6,10.8-8.8,18.4-21,18.4c-17.5,0-20.1-11.7-20.1-20.1s7.7-34.2,13.9-38.9
				c2.4-1.9,8.9,18.8,9.8,20.5c0.5,1,5.3-12.2,5.9-10.2C465.9-36.3,473.7-30.4,473.1-21.1z"/>
		</g>
	</g>
</g>
<g id="Calque_6" class="st5">
	<g id="Calque_8" class="st6">
	</g>
</g>
<g id="Calque_9" class="st5">
	<g class="st6">
		<g>
			<path class="st7" d="M237.5,112.8h-53.2c-11.6,0-22.3,6.2-28.1,16.2l-26.6,46.1c-5.8,10-5.8,22.4,0,32.4l26.6,46.1
				c5.8,10,16.5,16.2,28.1,16.2h53.2c11.6,0,22.3-6.2,28.1-16.2l26.6-46.1c5.8-10,5.8-22.4,0-32.4l-26.6-46.1
				C259.8,119,249.1,112.8,237.5,112.8z"/>
			<path class="st8" d="M239.6,114.8h-47.2c-11.8,0-22.7,6.4-28.4,16.8l-24.9,45.1c-5.4,9.8-5.4,21.6,0,31.3l24.9,45.1
				c5.7,10.3,16.6,16.8,28.4,16.8h47.2c11.8,0,22.7-6.4,28.4-16.8l24.9-45.1c5.4-9.8,5.4-21.6,0-31.3L268,131.6
				C262.3,121.3,251.4,114.8,239.6,114.8z"/>
			<path class="st9" d="M238.2,127.6h-54.7c-5.9,0-11.3,3.1-14.2,8.2L142,183.1c-2.9,5.1-2.9,11.3,0,16.4l27.3,47.4
				c2.9,5.1,8.4,8.2,14.2,8.2h54.7c5.9,0,11.3-3.1,14.2-8.2l27.3-47.4c2.9-5.1,2.9-11.3,0-16.4l-27.3-47.4
				C249.5,130.7,244.1,127.6,238.2,127.6z"/>
			<path class="st10" d="M152,208.6c-2.9-5.1-2.9-11.3,0-16.4l27.3-47.4c2.9-5.1,8.4-8.2,14.2-8.2h54.7c1.8,0,3.5,0.3,5.2,0.8
				l-0.9-1.6c-2.9-5.1-8.4-8.2-14.2-8.2h-54.7c-5.9,0-11.3,3.1-14.2,8.2L142,183.1c-2.9,5.1-2.9,11.3,0,16.4l27.3,47.4
				c2,3.5,5.3,6.1,9.1,7.4L152,208.6z"/>
		</g>
		<path class="st10" d="M238.3,180.9H216c-0.5,0-1-0.5-1.2-1.2l-0.2-23.8c-0.3-1.5-1.8-1.7-2.3-0.3L190,205.9
			c-0.5,1.2,0.1,2.6,1.1,2.6l23.4-0.4c0.5,0,1,0.5,1.2,1.2l0.3,25c0.3,1.5,1.8,1.7,2.3,0.3l21.1-51.2
			C239.9,182.3,239.2,180.9,238.3,180.9z"/>
		<g>
			<path class="st8" d="M234.7,177.2h-22.4c-0.5,0-1-0.5-1.2-1.2l-0.2-23.8c-0.3-1.5-1.8-1.7-2.3-0.3l-22.2,50.3
				c-0.5,1.2,0.1,2.6,1.1,2.6l23.4-0.4c0.5,0,1,0.5,1.2,1.2l0.3,25c0.3,1.5,1.8,1.7,2.3,0.3l21.1-51.2
				C236.2,178.5,235.6,177.2,234.7,177.2z"/>
			<g>
				<path class="st7" d="M217.9,204.1l-6.7,0.3c0.4,0.1,0.8,0.6,0.9,1.2l0.3,25c0.3,1.5,1.8,1.7,2.3,0.3l0.5-1.3L217.9,204.1z"/>
				<path class="st7" d="M210.9,159.8l0-7.6c-0.3-1.5-1.8-1.7-2.3-0.3l-22.2,50.3c-0.5,1.2,0.1,2.6,1.1,2.6l5.5-0.1L210.9,159.8z"/>
			</g>
		</g>
	</g>
</g>
<g id="Calque_7" class="st5">
	<g class="st6">
		<g>
			<g>
				<path class="st0" d="M-8.1,112.8h-53.2c-11.6,0-22.3,6.2-28.1,16.2l-26.6,46.1c-5.8,10-5.8,22.4,0,32.4l26.6,46.1
					c5.8,10,16.5,16.2,28.1,16.2h53.2c11.6,0,22.3-6.2,28.1-16.2l26.6-46.1c5.8-10,5.8-22.4,0-32.4L20,129.1
					C14.2,119,3.5,112.8-8.1,112.8z"/>
			</g>
			<g>
				<path class="st1" d="M-6,114.8h-47.2c-11.8,0-22.7,6.4-28.4,16.8l-24.9,45.1c-5.4,9.8-5.4,21.6,0,31.3l24.9,45.1
					c5.7,10.3,16.6,16.8,28.4,16.8H-6c11.8,0,22.7-6.4,28.4-16.8L47.3,208c5.4-9.8,5.4-21.6,0-31.3l-24.9-45.1
					C16.7,121.3,5.9,114.8-6,114.8z"/>
			</g>
			<path class="st2" d="M-7.4,127.6H-62c-5.9,0-11.3,3.1-14.2,8.2l-27.3,47.4c-2.9,5.1-2.9,11.3,0,16.4l27.3,47.4
				c2.9,5.1,8.4,8.2,14.2,8.2h54.7c5.9,0,11.3-3.1,14.2-8.2l27.3-47.4c2.9-5.1,2.9-11.3,0-16.4L6.9,135.8
				C3.9,130.7-1.5,127.6-7.4,127.6z"/>
			<path class="st3" d="M-93.6,208.6c-2.9-5.1-2.9-11.3,0-16.4l27.3-47.4c2.9-5.1,8.4-8.2,14.2-8.2H2.6c1.8,0,3.5,0.3,5.2,0.8
				l-0.9-1.6c-2.9-5.1-8.4-8.2-14.2-8.2h-54.7c-5.9,0-11.3,3.1-14.2,8.2l-27.3,47.4c-2.9,5.1-2.9,11.3,0,16.4l27.3,47.4
				c2,3.5,5.3,6.1,9.1,7.4L-93.6,208.6z"/>
		</g>
		<path class="st3" d="M-9.3,206.7c0,12.2-9.9,22.2-22.2,22.2s-22.2-9.9-22.2-22.2c0-10.2,15.3-38.5,20.5-47.8
			c0.7-1.3,2.6-1.3,3.4,0C-24.6,168.1-9.3,196.5-9.3,206.7z"/>
		<g>
			<g>
				<path class="st4" d="M-12.3,204.7c0,12.2-9.9,22.2-22.2,22.2s-22.2-9.9-22.2-22.2c0-10.2,15.3-38.5,20.5-47.8
					c0.7-1.3,2.6-1.3,3.4,0C-27.6,166.1-12.3,194.5-12.3,204.7z"/>
			</g>
			<path class="st3" d="M-15.5,203.9c0,11.1-9,20.2-20.2,20.2s8.4-9.9,8.4-21c0-6.7-3.1-21.9-5.5-32.9c-0.4-2,2.3-3,3.3-1.2
				C-23.6,180.2-15.5,196.8-15.5,203.9z"/>
		</g>
	</g>
</g>
<g id="Calque_5" class="st5">
	<path class="st15" d="M498-182.3h-99.8c-15.8,0-28.6-12.8-28.6-28.6v-77c0-8.2,4.5-15.8,11.8-19.7l56-30c6.6-3.5,14.5-3.5,21.1,0
		l56.3,30.1c7.3,3.9,11.8,11.5,11.8,19.7v77C526.7-195.1,513.8-182.3,498-182.3z"/>
	<path class="st16" d="M499.7-182.3h-94.1c-14.9,0-27-12.6-27-28.1v-75.6c0-8.1,4.3-15.5,11.1-19.3l52.8-29.5
		c6.2-3.5,13.7-3.5,19.9,0l53.1,29.5c6.8,3.8,11.1,11.2,11.1,19.3v75.5C526.7-194.9,514.6-182.3,499.7-182.3z"/>
	<path class="st17" d="M497.4-197.4h-98.5c-7.9,0-14.2-6.4-14.2-14.2v-76.6c0-3.4,1.8-6.5,4.8-8.1l54.2-29.1c2.7-1.4,5.9-1.5,8.6,0
		l54.5,29.1c3,1.6,4.8,4.7,4.8,8.1v76.6C511.6-203.8,505.3-197.4,497.4-197.4z"/>
	<path class="st18" d="M399.6-206.5v-76.6c0-3.4,1.8-6.5,4.8-8.1l54.2-29.1c0.6-0.3,1.2-0.5,1.8-0.7l-8.2-4.4
		c-2.7-1.4-5.9-1.4-8.6,0l-54.2,29.1c-3,1.6-4.8,4.7-4.8,8.1v76.6c0,7.9,6.4,14.2,14.2,14.2h4.1
		C400.9-199.9,399.6-203.1,399.6-206.5z"/>
	<path class="st18" d="M476.6-240c0,12.9-10.4,18.4-23.3,18.4s-23.3-5.5-23.3-18.4s7.1-37.7,17-44.3c4.7-3.1,9.6,21.6,11.6,23.7
		c1.8,1.8,5.4-12.5,6.3-9.4C467.9-259.8,476.6-248.5,476.6-240z"/>
	<path class="st18" d="M476.6-240c-0.6,10.8-8.8,18.4-21,18.4c-17.5,0-20.1-11.7-20.1-20.1c0-8.4,7.7-34.2,13.9-38.9
		c2.4-1.9,8.9,18.8,9.8,20.5c0.5,1,4.7-11.9,5.9-10.2C472.5-259.6,477.1-249.4,476.6-240z"/>
	<path class="st19" d="M474.2-244c0,12.9-10.4,18.4-23.3,18.4s-24.8-5.6-23.3-18.4c1.6-12.9,8.8-36.2,17-44.3
		c4-4,9.6,21.6,11.6,23.7c1.8,1.9,5.4-12.5,6.3-9.4C465.5-263.8,474.2-252.5,474.2-244z"/>
	<path class="st20" d="M474.2-244.1c-0.6,10.8-8.8,18.4-21,18.4c-17.5,0-20.1-11.7-20.1-20.1c0-8.4,7.7-34.2,13.9-38.9
		c2.4-1.9,8.9,18.8,9.8,20.5c0.5,1,5.3-12.2,5.9-10.2C467-259.3,474.7-253.4,474.2-244.1z"/>
	<path class="st15" d="M498-182.3h-99.8c-15.8,0-28.6-12.8-28.6-28.6v-77c0-8.2,4.5-15.8,11.8-19.7l56-30c6.6-3.5,14.5-3.5,21.1,0
		l56.3,30.1c7.3,3.9,11.8,11.5,11.8,19.7v77C526.7-195.1,513.8-182.3,498-182.3z"/>
	<path class="st16" d="M499.7-182.3h-94.1c-14.9,0-27-12.6-27-28.1v-75.6c0-8.1,4.3-15.5,11.1-19.3l52.8-29.5
		c6.2-3.5,13.7-3.5,19.9,0l53.1,29.5c6.8,3.8,11.1,11.2,11.1,19.3v75.5C526.7-194.9,514.6-182.3,499.7-182.3z"/>
	<path class="st17" d="M497.4-197.4h-98.5c-7.9,0-14.2-6.4-14.2-14.2v-76.6c0-3.4,1.8-6.5,4.8-8.1l54.2-29.1c2.7-1.4,5.9-1.5,8.6,0
		l54.5,29.1c3,1.6,4.8,4.7,4.8,8.1v76.6C511.6-203.8,505.3-197.4,497.4-197.4z"/>
	<path class="st18" d="M399.6-206.5v-76.6c0-3.4,1.8-6.5,4.8-8.1l54.2-29.1c0.6-0.3,1.2-0.5,1.8-0.7l-8.2-4.4
		c-2.7-1.4-5.9-1.4-8.6,0l-54.2,29.1c-3,1.6-4.8,4.7-4.8,8.1v76.6c0,7.9,6.4,14.2,14.2,14.2h4.1
		C400.9-199.9,399.6-203.1,399.6-206.5z"/>
	<path class="st18" d="M476.6-240c0,12.9-10.4,18.4-23.3,18.4s-23.3-5.5-23.3-18.4s7.1-37.7,17-44.3c4.7-3.1,9.6,21.6,11.6,23.7
		c1.8,1.8,5.4-12.5,6.3-9.4C467.9-259.8,476.6-248.5,476.6-240z"/>
	<path class="st18" d="M476.6-240c-0.6,10.8-8.8,18.4-21,18.4c-17.5,0-20.1-11.7-20.1-20.1c0-8.4,7.7-34.2,13.9-38.9
		c2.4-1.9,8.9,18.8,9.8,20.5c0.5,1,4.7-11.9,5.9-10.2C472.5-259.6,477.1-249.4,476.6-240z"/>
	<path class="st19" d="M474.2-244c0,12.9-10.4,18.4-23.3,18.4s-24.8-5.6-23.3-18.4c1.6-12.9,8.8-36.2,17-44.3
		c4-4,9.6,21.6,11.6,23.7c1.8,1.9,5.4-12.5,6.3-9.4C465.5-263.8,474.2-252.5,474.2-244z"/>
	<path class="st20" d="M474.2-244.1c-0.6,10.8-8.8,18.4-21,18.4c-17.5,0-20.1-11.7-20.1-20.1c0-8.4,7.7-34.2,13.9-38.9
		c2.4-1.9,8.9,18.8,9.8,20.5c0.5,1,5.3-12.2,5.9-10.2C467-259.3,474.7-253.4,474.2-244.1z"/>
</g>
<g id="Calque_10" class="st5">
	<g class="st6">
		<g>
			<path class="st11" d="M476.2,112.8H423c-11.6,0-22.3,6.2-28.1,16.2l-26.6,46.1c-5.8,10-5.8,22.4,0,32.4l26.6,46.1
				c5.8,10,16.5,16.2,28.1,16.2h53.2c11.6,0,22.3-6.2,28.1-16.2l26.6-46.1c5.8-10,5.8-22.4,0-32.4l-26.6-46.1
				C498.5,119,487.8,112.8,476.2,112.8z"/>
			<path class="st12" d="M478.4,114.8h-47.2c-11.8,0-22.7,6.4-28.4,16.8l-24.9,45.1c-5.4,9.8-5.4,21.6,0,31.3l24.9,45.1
				c5.7,10.3,16.6,16.8,28.4,16.8h47.2c11.8,0,22.7-6.4,28.4-16.8l24.9-45.1c5.4-9.8,5.4-21.6,0-31.3l-24.9-45.1
				C501,121.3,490.2,114.8,478.4,114.8z"/>
			<path class="st13" d="M476.9,127.6h-54.7c-5.9,0-11.3,3.1-14.2,8.2l-27.3,47.4c-2.9,5.1-2.9,11.3,0,16.4l27.3,47.4
				c2.9,5.1,8.4,8.2,14.2,8.2h54.7c5.9,0,11.3-3.1,14.2-8.2l27.3-47.4c2.9-5.1,2.9-11.3,0-16.4l-27.3-47.4
				C488.2,130.7,482.8,127.6,476.9,127.6z"/>
			<path class="st14" d="M390.7,208.6c-2.9-5.1-2.9-11.3,0-16.4l27.3-47.4c2.9-5.1,8.4-8.2,14.2-8.2h54.7c1.8,0,3.5,0.3,5.2,0.8
				l-0.9-1.6c-2.9-5.1-8.4-8.2-14.2-8.2h-54.7c-5.9,0-11.3,3.1-14.2,8.2l-27.3,47.4c-2.9,5.1-2.9,11.3,0,16.4l27.3,47.4
				c2,3.5,5.3,6.1,9.1,7.4L390.7,208.6z"/>
		</g>
		<path class="st14" d="M476.4,204.7c-0.6,10.8-8.8,18.4-21,18.4c-17.5,0-20.1-11.7-20.1-20.1c0-8.4,7.7-34.2,13.9-38.9
			c2.4-1.9,8.9,18.8,9.8,20.5c0.5,1,4.7-11.9,5.9-10.2C472.3,185.1,477,195.3,476.4,204.7z"/>
		<g>
			<path class="st8" d="M473.1,204.5c0,12.8-10.4,18.3-23.3,18.3s-24.8-5.6-23.3-18.3c1.6-12.9,8.8-36.2,17-44.3
				c4-4,9.6,21.6,11.6,23.7c1.8,1.8,5.4-12.5,6.3-9.4C464.4,184.7,473.1,196.1,473.1,204.5z"/>
			<path class="st9" d="M473.1,204.5c-0.6,10.8-8.8,18.4-21,18.4c-17.5,0-20.1-11.7-20.1-20.1c0-8.4,7.7-34.2,13.9-38.9
				c2.4-1.9,8.9,18.8,9.8,20.5c0.5,1,5.3-12.2,5.9-10.2C465.9,189.2,473.7,195.1,473.1,204.5z"/>
		</g>
	</g>
</g>
</svg>
