<?xml version="1.0" encoding="utf-8"?>
<!-- Generator: Adobe Illustrator 27.6.1, SVG Export Plug-In . SVG Version: 6.00 Build 0)  -->
<svg version="1.1" xmlns="http://www.w3.org/2000/svg" xmlns:xlink="http://www.w3.org/1999/xlink" x="0px" y="0px"
	 viewBox="0 0 64 64" style="enable-background:new 0 0 64 64;" xml:space="preserve">
<style type="text/css">
	.st0{fill:#E83B3B;}
	.st1{fill:#53B9A1;}
	.st2{fill:#F9AF14;}
	.st3{fill:#010202;}
	.st4{fill:#FFFFFF;}
	.st5{fill:#E83862;}
</style>
<g id="Calque_1">
	<path class="st0" d="M9.77,64H54.3c5.36,0,9.7-4.34,9.7-9.7V9.77c0-5.36-4.34-9.7-9.7-9.7H9.77c-5.36,0-9.7,4.34-9.7,9.7V54.3
		C0.07,59.66,4.41,64,9.77,64z"/>
	<path class="st1" d="M60.32,57.06H3.75c-2.03,0-3.68-1.96-3.68-4.37V19.03C41.51,33.59,64,6.77,64,9.18v43.51
		C64,55.11,62.35,57.06,60.32,57.06z"/>
	<path class="st2" d="M13.17,49.78C7.3,47.94,0.07,47.45,0.07,48.68v5.67C0.09,59.67,4.4,63.98,9.73,64h44.61
		c5.34-0.02,9.66-4.35,9.66-9.7v-5.62C54.04,52.03,44.14,59.51,13.17,49.78z"/>
	<circle class="st3" cx="13.44" cy="25.9" r="5.44"/>
	<circle class="st4" cx="15.92" cy="24.71" r="1.72"/>
	<circle class="st3" cx="50.77" cy="25.76" r="5.44"/>
	<path class="st3" d="M40.5,31.01c0,3-3.83,7.05-8.5,7.05s-8.42-3.91-8.42-7.05c1.59-3.07,1.81,1.63,8.46,1.7
		S38.76,27.93,40.5,31.01z"/>
	<path class="st5" d="M28.13,37.13c1.16,0.57,2.47,0.93,3.87,0.93c2.1,0,4.02-0.82,5.5-1.99c-0.96-1.24-2.57-2.06-4.38-2.06
		C30.82,34.01,28.89,35.31,28.13,37.13z"/>
	<circle class="st4" cx="16.35" cy="26.18" r="1.25"/>
	<circle class="st4" cx="53.04" cy="24.46" r="1.72"/>
	<circle class="st4" cx="53.47" cy="25.94" r="1.25"/>
</g>
<g id="Calque_2">
</g>
</svg>
