<?xml version="1.0" encoding="utf-8"?>
<!-- Generator: Adobe Illustrator 27.6.1, SVG Export Plug-In . SVG Version: 6.00 Build 0)  -->
<svg version="1.1" id="Calque_1" xmlns="http://www.w3.org/2000/svg" xmlns:xlink="http://www.w3.org/1999/xlink" x="0px" y="0px"
	 viewBox="0 0 157 157" style="enable-background:new 0 0 157 157;" xml:space="preserve">
<style type="text/css">
	.st0{display:none;}
	.st1{display:inline;}
	.st2{fill:#B3E3F2;}
	.st3{fill:#43BCF9;}
	.st4{fill:#049EFF;}
	.st5{fill:#0083C4;}
	.st6{fill:#92E0FF;}
	.st7{fill:#FFE999;}
	.st8{fill:#FFD63D;}
	.st9{fill:#FFA600;}
	.st10{fill:#FE9600;}
	.st11{fill:#F06083;}
	.st12{fill:#DE2752;}
	.st13{fill:#981241;}
	.st14{fill:#7A0E37;}
	.st15{display:inline;fill:#F06083;}
	.st16{display:inline;fill:#DE2752;}
	.st17{display:inline;fill:#981241;}
	.st18{display:inline;fill:#7A0E37;}
	.st19{display:inline;fill:#FFD63D;}
	.st20{display:inline;fill:#FFA600;}
</style>
<g id="Calque_4" class="st0">
	<g class="st1">
		<g>
			<g>
				<path class="st2" d="M-366.1,157h-79.4c-21.4,0-38.8-17.4-38.8-38.8V38.8c0-21.4,17.4-38.8,38.8-38.8h79.4
					c21.4,0,38.8,17.4,38.8,38.8v79.4C-327.3,139.6-344.7,157-366.1,157z"/>
			</g>
			<g>
				<path class="st3" d="M-366.1,157h-81.3c-18.2,0-32.9-14.7-32.9-32.9V44.8c0-21.4,17.4-38.8,38.8-38.8h82.9
					c17.3,0,31.3,14,31.3,31.3v80.9C-327.3,139.6-344.7,157-366.1,157z"/>
			</g>
			<path class="st4" d="M-368.3,142.5h-74.9c-14.7,0-26.5-11.9-26.5-26.5V41c0-14.7,11.9-26.5,26.5-26.5h74.9
				c14.7,0,26.5,11.9,26.5,26.5V116C-341.8,130.6-353.7,142.5-368.3,142.5z"/>
			<path class="st5" d="M-462.3,123.5V48.6c0-14.7,11.9-26.5,26.5-26.5h74.9c5.4,0,10.4,1.6,14.6,4.4c-4.8-7.2-12.9-11.9-22.1-11.9
				h-74.9c-14.7,0-26.5,11.9-26.5,26.5V116c0,9.2,4.7,17.4,11.9,22.1C-460.7,133.9-462.3,128.9-462.3,123.5z"/>
		</g>
		<path class="st5" d="M-380.4,95.3c0,12.2-9.9,22.2-22.2,22.2s-22.2-9.9-22.2-22.2c0-10.2,15.3-38.5,20.5-47.8
			c0.7-1.3,2.6-1.3,3.4,0C-395.7,56.8-380.4,85.2-380.4,95.3z"/>
		<g>
			<g>
				<path class="st6" d="M-383.6,91.8c0,12.2-9.9,22.2-22.2,22.2s-22.2-9.9-22.2-22.2c0-10.2,15.3-38.5,20.5-47.8
					c0.7-1.3,2.6-1.3,3.4,0C-398.9,53.3-383.6,81.7-383.6,91.8z"/>
			</g>
			<path class="st5" d="M-386.8,91c0,11.1-9,20.2-20.2,20.2s8.4-9.9,8.4-21c0-6.7-3.1-21.9-5.5-32.9c-0.4-2,2.3-3,3.3-1.2
				C-394.9,67.4-386.8,84-386.8,91z"/>
		</g>
	</g>
</g>
<g id="Calque_11" class="st0">
	<g class="st1">
		<g>
			<path class="st7" d="M-120.5,157h-79.4c-21.4,0-38.8-17.4-38.8-38.8V38.8c0-21.4,17.4-38.8,38.8-38.8h79.4
				c21.4,0,38.8,17.4,38.8,38.8v79.4C-81.7,139.6-99.1,157-120.5,157z"/>
			<path class="st8" d="M-120.5,157h-81.3c-18.2,0-32.9-14.7-32.9-32.9V44.8c0-21.4,17.4-38.8,38.8-38.8h82.9
				c17.3,0,31.3,14,31.3,31.3v80.9C-81.7,139.6-99.1,157-120.5,157z"/>
			<path class="st9" d="M-122.8,142.5h-74.9c-14.7,0-26.5-11.9-26.5-26.5V41c0-14.7,11.9-26.5,26.5-26.5h74.9
				c14.7,0,26.5,11.9,26.5,26.5V116C-96.2,130.6-108.1,142.5-122.8,142.5z"/>
			<path class="st10" d="M-216.7,123.5V48.6c0-14.7,11.9-26.5,26.5-26.5h74.9c5.4,0,10.4,1.6,14.6,4.4c-4.8-7.2-12.9-11.9-22.1-11.9
				h-74.9c-14.7,0-26.5,11.9-26.5,26.5V116c0,9.2,4.7,17.4,11.9,22.1C-215.1,133.9-216.7,128.9-216.7,123.5z"/>
		</g>
		<path class="st10" d="M-132.4,69.1h-22.4c-0.5,0-1-0.5-1.2-1.2l-0.2-23.8c-0.3-1.5-1.8-1.7-2.3-0.3L-180.7,94
			c-0.5,1.2,0.1,2.6,1.1,2.6l23.4-0.4c0.5,0,1,0.5,1.2,1.2l0.3,25c0.3,1.5,1.8,1.7,2.3,0.3l21.1-51.2
			C-130.9,70.4-131.5,69.1-132.4,69.1z"/>
		<g>
			<path class="st8" d="M-136.6,64.3H-159c-0.5,0-1-0.5-1.2-1.2l-0.2-23.8c-0.3-1.5-1.8-1.7-2.3-0.3l-22.2,50.3
				c-0.5,1.2,0.1,2.6,1.1,2.6l23.4-0.4c0.5,0,1,0.5,1.2,1.2l0.3,25c0.3,1.5,1.8,1.7,2.3,0.3l21.1-51.2
				C-135.1,65.7-135.7,64.3-136.6,64.3z"/>
			<g>
				<path class="st7" d="M-153.4,91.3l-6.7,0.3c0.4,0.1,0.8,0.6,0.9,1.2l0.3,25c0.3,1.5,1.8,1.7,2.3,0.3l0.5-1.3L-153.4,91.3z"/>
				<path class="st7" d="M-160.4,46.9l0-7.6c-0.3-1.5-1.8-1.7-2.3-0.3l-22.2,50.3c-0.5,1.2,0.1,2.6,1.1,2.6l5.5-0.1L-160.4,46.9z"/>
			</g>
		</g>
	</g>
</g>
<g id="Calque_12">
	<g>
		<g>
			<path class="st11" d="M118.2,157H38.8C17.4,157,0,139.6,0,118.2V38.8C0,17.4,17.4,0,38.8,0h79.4C139.6,0,157,17.4,157,38.8v79.4
				C157,139.6,139.6,157,118.2,157z"/>
			<path class="st12" d="M118.2,157H36.9C18.7,157,4,142.3,4,124.1V44.8C4,23.4,21.4,6,42.8,6h82.9C143,6,157,20,157,37.3v80.9
				C157,139.6,139.6,157,118.2,157z"/>
			<path class="st13" d="M116,142.5H41c-14.7,0-26.5-11.9-26.5-26.5V41c0-14.7,11.9-26.5,26.5-26.5H116c14.7,0,26.5,11.9,26.5,26.5
				V116C142.5,130.6,130.6,142.5,116,142.5z"/>
			<path class="st14" d="M22,123.5V48.6C22,33.9,33.9,22,48.5,22h74.9c5.4,0,10.4,1.6,14.6,4.4c-4.8-7.2-12.9-11.9-22.1-11.9H41
				c-14.7,0-26.5,11.9-26.5,26.5V116c0,9.2,4.7,17.4,11.9,22.1C23.6,133.9,22,128.9,22,123.5z"/>
		</g>
		<path class="st14" d="M103.6,95.6c-0.6,10.8-8.8,18.4-21,18.4c-17.5,0-20.1-11.7-20.1-20.1S70.1,59.7,76.3,55
			c2.4-1.9,8.9,18.8,9.8,20.5c0.5,1,4.7-11.9,5.9-10.2C99.5,76.1,104.2,86.3,103.6,95.6z"/>
		<g>
			<path class="st8" d="M101.8,91.7c0,12.8-10.4,18.3-23.3,18.3s-24.8-5.6-23.3-18.3c1.6-12.9,8.8-36.2,17-44.3
				c4-4,9.6,21.6,11.6,23.7c1.8,1.8,5.4-12.5,6.3-9.4C93.1,71.9,101.8,83.2,101.8,91.7z"/>
			<path class="st9" d="M101.8,91.6c-0.6,10.8-8.8,18.4-21,18.4c-17.5,0-20.1-11.7-20.1-20.1S68.3,55.7,74.5,51
				c2.4-1.9,8.9,18.8,9.8,20.5c0.5,1,5.3-12.2,5.9-10.2C94.6,76.4,102.4,82.3,101.8,91.6z"/>
		</g>
	</g>
</g>
<g id="Calque_6" class="st0">
	<g id="Calque_8" class="st1">
	</g>
</g>
<g id="Calque_9" class="st0">
	<g class="st1">
		<g>
			<path class="st7" d="M-133.8,225.5H-187c-11.6,0-22.3,6.2-28.1,16.2l-26.6,46.1c-5.8,10-5.8,22.4,0,32.4l26.6,46.1
				c5.8,10,16.5,16.2,28.1,16.2h53.2c11.6,0,22.3-6.2,28.1-16.2l26.6-46.1c5.8-10,5.8-22.4,0-32.4l-26.6-46.1
				C-111.5,231.7-122.2,225.5-133.8,225.5z"/>
			<path class="st8" d="M-131.7,227.5h-47.2c-11.8,0-22.7,6.4-28.4,16.8l-24.9,45.1c-5.4,9.8-5.4,21.6,0,31.3l24.9,45.1
				c5.7,10.3,16.6,16.8,28.4,16.8h47.2c11.8,0,22.7-6.4,28.4-16.8l24.9-45.1c5.4-9.8,5.4-21.6,0-31.3l-24.9-45.1
				C-109,234-119.9,227.5-131.7,227.5z"/>
			<path class="st9" d="M-133.1,240.2h-54.7c-5.9,0-11.3,3.1-14.2,8.2l-27.3,47.4c-2.9,5.1-2.9,11.3,0,16.4l27.3,47.4
				c2.9,5.1,8.4,8.2,14.2,8.2h54.7c5.9,0,11.3-3.1,14.2-8.2l27.3-47.4c2.9-5.1,2.9-11.3,0-16.4l-27.3-47.4
				C-121.8,243.4-127.2,240.2-133.1,240.2z"/>
			<path class="st10" d="M-219.3,321.2c-2.9-5.1-2.9-11.3,0-16.4l27.3-47.4c2.9-5.1,8.4-8.2,14.2-8.2h54.7c1.8,0,3.5,0.3,5.2,0.8
				l-0.9-1.6c-2.9-5.1-8.4-8.2-14.2-8.2h-54.7c-5.9,0-11.3,3.1-14.2,8.2l-27.3,47.4c-2.9,5.1-2.9,11.3,0,16.4l27.3,47.4
				c2,3.5,5.3,6.1,9.1,7.4L-219.3,321.2z"/>
		</g>
		<path class="st10" d="M-133,293.6h-22.4c-0.5,0-1-0.5-1.2-1.2l-0.2-23.8c-0.3-1.5-1.8-1.7-2.3-0.3l-22.2,50.3
			c-0.5,1.2,0.1,2.6,1.1,2.6l23.4-0.4c0.5,0,1,0.5,1.2,1.2l0.3,25c0.3,1.5,1.8,1.7,2.3,0.3l21.1-51.2
			C-131.5,295-132.1,293.6-133,293.6z"/>
		<g>
			<path class="st8" d="M-136.6,289.9H-159c-0.5,0-1-0.5-1.2-1.2l-0.2-23.8c-0.3-1.5-1.8-1.7-2.3-0.3l-22.2,50.3
				c-0.5,1.2,0.1,2.6,1.1,2.6l23.4-0.4c0.5,0,1,0.5,1.2,1.2l0.3,25c0.3,1.5,1.8,1.7,2.3,0.3l21.1-51.2
				C-135.1,291.2-135.7,289.9-136.6,289.9z"/>
			<g>
				<path class="st7" d="M-153.4,316.8l-6.7,0.3c0.4,0.1,0.8,0.6,0.9,1.2l0.3,25c0.3,1.5,1.8,1.7,2.3,0.3l0.5-1.3L-153.4,316.8z"/>
				<path class="st7" d="M-160.4,272.5l0-7.6c-0.3-1.5-1.8-1.7-2.3-0.3l-22.2,50.3c-0.5,1.2,0.1,2.6,1.1,2.6l5.5-0.1L-160.4,272.5z"
					/>
			</g>
		</g>
	</g>
</g>
<g id="Calque_7" class="st0">
	<g class="st1">
		<g>
			<g>
				<path class="st2" d="M-379.4,225.5h-53.2c-11.6,0-22.3,6.2-28.1,16.2l-26.6,46.1c-5.8,10-5.8,22.4,0,32.4l26.6,46.1
					c5.8,10,16.5,16.2,28.1,16.2h53.2c11.6,0,22.3-6.2,28.1-16.2l26.6-46.1c5.8-10,5.8-22.4,0-32.4l-26.6-46.1
					C-357.1,231.7-367.8,225.5-379.4,225.5z"/>
			</g>
			<g>
				<path class="st3" d="M-377.3,227.5h-47.2c-11.8,0-22.7,6.4-28.4,16.8l-24.9,45.1c-5.4,9.8-5.4,21.6,0,31.3l24.9,45.1
					c5.7,10.3,16.6,16.8,28.4,16.8h47.2c11.8,0,22.7-6.4,28.4-16.8l24.9-45.1c5.4-9.8,5.4-21.6,0-31.3l-24.9-45.1
					C-354.6,234-365.4,227.5-377.3,227.5z"/>
			</g>
			<path class="st4" d="M-378.7,240.2h-54.7c-5.9,0-11.3,3.1-14.2,8.2l-27.3,47.4c-2.9,5.1-2.9,11.3,0,16.4l27.3,47.4
				c2.9,5.1,8.4,8.2,14.2,8.2h54.7c5.9,0,11.3-3.1,14.2-8.2l27.3-47.4c2.9-5.1,2.9-11.3,0-16.4l-27.3-47.4
				C-367.4,243.4-372.8,240.2-378.7,240.2z"/>
			<path class="st5" d="M-464.9,321.2c-2.9-5.1-2.9-11.3,0-16.4l27.3-47.4c2.9-5.1,8.4-8.2,14.2-8.2h54.7c1.8,0,3.5,0.3,5.2,0.8
				l-0.9-1.6c-2.9-5.1-8.4-8.2-14.2-8.2h-54.7c-5.9,0-11.3,3.1-14.2,8.2l-27.3,47.4c-2.9,5.1-2.9,11.3,0,16.4l27.3,47.4
				c2,3.5,5.3,6.1,9.1,7.4L-464.9,321.2z"/>
		</g>
		<path class="st5" d="M-380.6,319.4c0,12.2-9.9,22.2-22.2,22.2s-22.2-9.9-22.2-22.2c0-10.2,15.3-38.5,20.5-47.8
			c0.7-1.3,2.6-1.3,3.4,0C-395.9,280.8-380.6,309.2-380.6,319.4z"/>
		<g>
			<g>
				<path class="st6" d="M-383.6,317.4c0,12.2-9.9,22.2-22.2,22.2s-22.2-9.9-22.2-22.2c0-10.2,15.3-38.5,20.5-47.8
					c0.7-1.3,2.6-1.3,3.4,0C-398.9,278.8-383.6,307.2-383.6,317.4z"/>
			</g>
			<path class="st5" d="M-386.8,316.6c0,11.1-9,20.2-20.2,20.2s8.4-9.9,8.4-21c0-6.7-3.1-21.9-5.5-32.9c-0.4-2,2.3-3,3.3-1.2
				C-394.9,292.9-386.8,309.5-386.8,316.6z"/>
		</g>
	</g>
</g>
<g id="Calque_5" class="st0">
	<path class="st15" d="M126.7-69.6H26.9c-15.8,0-28.6-12.8-28.6-28.6v-77c0-8.2,4.5-15.8,11.8-19.7l56-30c6.6-3.5,14.5-3.5,21.1,0
		l56.3,30.1c7.3,3.9,11.8,11.5,11.8,19.7v77C155.3-82.4,142.5-69.6,126.7-69.6z"/>
	<path class="st16" d="M128.4-69.6H34.3c-14.9,0-27-12.6-27-28.1v-75.6c0-8.1,4.3-15.5,11.1-19.3L71.3-222c6.2-3.5,13.7-3.5,19.9,0
		l53.1,29.5c6.8,3.8,11.1,11.2,11.1,19.3v75.5C155.3-82.2,143.3-69.6,128.4-69.6z"/>
	<path class="st17" d="M126.1-84.7H27.6c-7.9,0-14.2-6.4-14.2-14.2v-76.6c0-3.4,1.8-6.5,4.8-8.1l54.2-29.1c2.7-1.4,5.9-1.5,8.6,0
		l54.5,29.1c3,1.6,4.8,4.7,4.8,8.1v76.6C140.3-91.1,134-84.7,126.1-84.7z"/>
	<path class="st18" d="M28.3-93.9v-76.6c0-3.4,1.8-6.5,4.8-8.1l54.2-29.1c0.6-0.3,1.2-0.5,1.8-0.7l-8.2-4.4c-2.7-1.4-5.9-1.4-8.6,0
		l-54.2,29.1c-3,1.6-4.8,4.7-4.8,8.1V-99c0,7.9,6.4,14.2,14.2,14.2h4.1C29.6-87.2,28.3-90.4,28.3-93.9z"/>
	<path class="st18" d="M105.3-127.3c0,12.9-10.4,18.4-23.3,18.4s-23.3-5.5-23.3-18.4s7.1-37.7,17-44.3c4.7-3.1,9.6,21.6,11.6,23.7
		c1.8,1.9,5.4-12.5,6.3-9.4C96.6-147.1,105.3-135.8,105.3-127.3z"/>
	<path class="st18" d="M105.3-127.4c-0.6,10.8-8.8,18.4-21,18.4c-17.5,0-20.1-11.7-20.1-20.1c0-8.4,7.7-34.2,13.9-38.9
		c2.4-1.9,8.9,18.8,9.8,20.5c0.5,1,4.7-11.9,5.9-10.2C101.2-146.9,105.8-136.7,105.3-127.4z"/>
	<path class="st19" d="M102.9-131.3c0,12.9-10.4,18.4-23.3,18.4s-24.8-5.6-23.3-18.4c1.6-12.9,8.8-36.2,17-44.3
		c4-4,9.6,21.6,11.6,23.7c1.8,1.9,5.4-12.5,6.3-9.4C94.2-151.1,102.9-139.8,102.9-131.3z"/>
	<path class="st20" d="M102.9-131.4c-0.6,10.8-8.8,18.4-21,18.4c-17.5,0-20.1-11.7-20.1-20.1c0-8.4,7.7-34.2,13.9-38.9
		c2.4-1.9,8.9,18.8,9.8,20.5c0.5,1,5.3-12.2,5.9-10.2C95.7-146.6,103.4-140.7,102.9-131.4z"/>
	<path class="st15" d="M126.7-69.6H26.9c-15.8,0-28.6-12.8-28.6-28.6v-77c0-8.2,4.5-15.8,11.8-19.7l56-30c6.6-3.5,14.5-3.5,21.1,0
		l56.3,30.1c7.3,3.9,11.8,11.5,11.8,19.7v77C155.3-82.4,142.5-69.6,126.7-69.6z"/>
	<path class="st16" d="M128.4-69.6H34.3c-14.9,0-27-12.6-27-28.1v-75.6c0-8.1,4.3-15.5,11.1-19.3L71.3-222c6.2-3.5,13.7-3.5,19.9,0
		l53.1,29.5c6.8,3.8,11.1,11.2,11.1,19.3v75.5C155.3-82.2,143.3-69.6,128.4-69.6z"/>
	<path class="st17" d="M126.1-84.7H27.6c-7.9,0-14.2-6.4-14.2-14.2v-76.6c0-3.4,1.8-6.5,4.8-8.1l54.2-29.1c2.7-1.4,5.9-1.5,8.6,0
		l54.5,29.1c3,1.6,4.8,4.7,4.8,8.1v76.6C140.3-91.1,134-84.7,126.1-84.7z"/>
	<path class="st18" d="M28.3-93.9v-76.6c0-3.4,1.8-6.5,4.8-8.1l54.2-29.1c0.6-0.3,1.2-0.5,1.8-0.7l-8.2-4.4c-2.7-1.4-5.9-1.4-8.6,0
		l-54.2,29.1c-3,1.6-4.8,4.7-4.8,8.1V-99c0,7.9,6.4,14.2,14.2,14.2h4.1C29.6-87.2,28.3-90.4,28.3-93.9z"/>
	<path class="st18" d="M105.3-127.3c0,12.9-10.4,18.4-23.3,18.4s-23.3-5.5-23.3-18.4s7.1-37.7,17-44.3c4.7-3.1,9.6,21.6,11.6,23.7
		c1.8,1.9,5.4-12.5,6.3-9.4C96.6-147.1,105.3-135.8,105.3-127.3z"/>
	<path class="st18" d="M105.3-127.4c-0.6,10.8-8.8,18.4-21,18.4c-17.5,0-20.1-11.7-20.1-20.1c0-8.4,7.7-34.2,13.9-38.9
		c2.4-1.9,8.9,18.8,9.8,20.5c0.5,1,4.7-11.9,5.9-10.2C101.2-146.9,105.8-136.7,105.3-127.4z"/>
	<path class="st19" d="M102.9-131.3c0,12.9-10.4,18.4-23.3,18.4s-24.8-5.6-23.3-18.4c1.6-12.9,8.8-36.2,17-44.3
		c4-4,9.6,21.6,11.6,23.7c1.8,1.9,5.4-12.5,6.3-9.4C94.2-151.1,102.9-139.8,102.9-131.3z"/>
	<path class="st20" d="M102.9-131.4c-0.6,10.8-8.8,18.4-21,18.4c-17.5,0-20.1-11.7-20.1-20.1c0-8.4,7.7-34.2,13.9-38.9
		c2.4-1.9,8.9,18.8,9.8,20.5c0.5,1,5.3-12.2,5.9-10.2C95.7-146.6,103.4-140.7,102.9-131.4z"/>
</g>
<g id="Calque_10" class="st0">
	<g class="st1">
		<g>
			<path class="st11" d="M104.9,225.5H51.7c-11.6,0-22.3,6.2-28.1,16.2L-3,287.8c-5.8,10-5.8,22.4,0,32.4l26.6,46.1
				c5.8,10,16.5,16.2,28.1,16.2h53.2c11.6,0,22.3-6.2,28.1-16.2l26.6-46.1c5.8-10,5.8-22.4,0-32.4L133,241.8
				C127.2,231.7,116.5,225.5,104.9,225.5z"/>
			<path class="st12" d="M107.1,227.5H59.8c-11.8,0-22.7,6.4-28.4,16.8L6.6,289.4c-5.4,9.8-5.4,21.6,0,31.3l24.9,45.1
				c5.7,10.3,16.6,16.8,28.4,16.8H107c11.8,0,22.7-6.4,28.4-16.8l24.9-45.1c5.4-9.8,5.4-21.6,0-31.3l-24.9-45.1
				C129.7,234,118.9,227.5,107.1,227.5z"/>
			<path class="st13" d="M105.6,240.2H51c-5.9,0-11.3,3.1-14.2,8.2L9.4,295.8c-2.9,5.1-2.9,11.3,0,16.4l27.3,47.4
				c2.9,5.1,8.4,8.2,14.2,8.2h54.7c5.9,0,11.3-3.1,14.2-8.2l27.3-47.4c2.9-5.1,2.9-11.3,0-16.4l-27.3-47.4
				C116.9,243.4,111.5,240.2,105.6,240.2z"/>
			<path class="st14" d="M19.4,321.2c-2.9-5.1-2.9-11.3,0-16.4l27.3-47.4c2.9-5.1,8.4-8.2,14.2-8.2h54.7c1.8,0,3.5,0.3,5.2,0.8
				l-0.9-1.6c-2.9-5.1-8.4-8.2-14.2-8.2H51c-5.9,0-11.3,3.1-14.2,8.2L9.4,295.8c-2.9,5.1-2.9,11.3,0,16.4l27.3,47.4
				c2,3.5,5.3,6.1,9.1,7.4L19.4,321.2z"/>
		</g>
		<path class="st14" d="M105.1,317.4c-0.6,10.8-8.8,18.4-21,18.4C66.6,335.8,64,324,64,315.6c0-8.4,7.7-34.2,13.9-38.9
			c2.4-1.9,8.9,18.8,9.8,20.5c0.5,1,4.7-11.9,5.9-10.2C101,297.8,105.7,308,105.1,317.4z"/>
		<g>
			<path class="st8" d="M101.8,317.2c0,12.8-10.4,18.3-23.3,18.3s-24.8-5.6-23.3-18.3c1.6-12.9,8.8-36.2,17-44.3
				c4-4,9.6,21.6,11.6,23.7c1.8,1.8,5.4-12.5,6.3-9.4C93.1,297.4,101.8,308.8,101.8,317.2z"/>
			<path class="st9" d="M101.8,317.2c-0.6,10.8-8.8,18.4-21,18.4c-17.5,0-20.1-11.7-20.1-20.1c0-8.4,7.7-34.2,13.9-38.9
				c2.4-1.9,8.9,18.8,9.8,20.5c0.5,1,5.3-12.2,5.9-10.2C94.6,301.9,102.4,307.8,101.8,317.2z"/>
		</g>
	</g>
</g>
</svg>
