<?xml version="1.0" encoding="utf-8"?>
<!-- Generator: Adobe Illustrator 27.6.1, SVG Export Plug-In . SVG Version: 6.00 Build 0)  -->
<svg version="1.1" id="Calque_1" xmlns="http://www.w3.org/2000/svg" xmlns:xlink="http://www.w3.org/1999/xlink" x="0px" y="0px"
	 viewBox="0 0 157 157" style="enable-background:new 0 0 157 157;" xml:space="preserve">
<style type="text/css">
	.st0{display:none;}
	.st1{display:inline;}
	.st2{fill:#B3E3F2;}
	.st3{fill:#43BCF9;}
	.st4{fill:#049EFF;}
	.st5{fill:#0083C4;}
	.st6{fill:#92E0FF;}
	.st7{fill:#FE9600;}
	.st8{fill:#FFD63D;}
	.st9{fill:#FFE999;}
	.st10{fill:#F06083;}
	.st11{fill:#DE2752;}
	.st12{fill:#981241;}
	.st13{fill:#7A0E37;}
	.st14{fill:#FFA600;}
	.st15{display:inline;fill:#F06083;}
	.st16{display:inline;fill:#DE2752;}
	.st17{display:inline;fill:#981241;}
	.st18{display:inline;fill:#7A0E37;}
	.st19{display:inline;fill:#FFD63D;}
	.st20{display:inline;fill:#FFA600;}
</style>
<g id="Calque_4" class="st0">
	<g class="st1">
		<g>
			<g>
				<path class="st2" d="M-127.4,157h-79.4c-21.4,0-38.8-17.4-38.8-38.8V38.8c0-21.4,17.4-38.8,38.8-38.8h79.4
					c21.4,0,38.8,17.4,38.8,38.8v79.4C-88.6,139.6-106,157-127.4,157z"/>
			</g>
			<g>
				<path class="st3" d="M-127.4,157h-81.3c-18.2,0-32.9-14.7-32.9-32.9V44.8c0-21.4,17.4-38.8,38.8-38.8h82.9
					c17.3,0,31.3,14,31.3,31.3v80.9C-88.6,139.6-106,157-127.4,157z"/>
			</g>
			<path class="st4" d="M-129.6,142.5h-74.9c-14.7,0-26.5-11.9-26.5-26.5V41c0-14.7,11.9-26.5,26.5-26.5h74.9
				c14.7,0,26.5,11.9,26.5,26.5v75C-103.1,130.6-115,142.5-129.6,142.5z"/>
			<path class="st5" d="M-223.6,123.5V48.6c0-14.7,11.9-26.5,26.5-26.5h74.9c5.4,0,10.4,1.6,14.6,4.4c-4.8-7.2-12.9-11.9-22.1-11.9
				h-74.9c-14.7,0-26.5,11.9-26.5,26.5V116c0,9.2,4.7,17.4,11.9,22.1C-222,133.9-223.6,128.9-223.6,123.5z"/>
		</g>
		<path class="st5" d="M-141.7,95.3c0,12.2-9.9,22.2-22.2,22.2s-22.2-9.9-22.2-22.2c0-10.2,15.3-38.5,20.5-47.8
			c0.7-1.3,2.6-1.3,3.4,0C-157,56.8-141.7,85.2-141.7,95.3z"/>
		<g>
			<g>
				<path class="st6" d="M-144.9,91.8c0,12.2-9.9,22.2-22.2,22.2s-22.2-9.9-22.2-22.2c0-10.2,15.3-38.5,20.5-47.8
					c0.7-1.3,2.6-1.3,3.4,0C-160.2,53.3-144.9,81.7-144.9,91.8z"/>
			</g>
			<path class="st5" d="M-148.1,91c0,11.1-9,20.2-20.2,20.2s8.4-9.9,8.4-21c0-6.7-3.1-21.9-5.5-32.9c-0.4-2,2.3-3,3.3-1.2
				C-156.2,67.4-148.1,84-148.1,91z"/>
		</g>
	</g>
</g>
<path class="st7" d="M106.3,69.1H83.9c-0.5,0-1-0.5-1.2-1.2L82.5,44c-0.3-1.5-1.8-1.7-2.3-0.3L58,94c-0.5,1.2,0.1,2.6,1.1,2.6
	l23.4-0.4c0.5,0,1,0.5,1.2,1.2l0.3,25c0.3,1.5,1.8,1.7,2.3,0.3l21.1-51.2C107.8,70.4,107.2,69.1,106.3,69.1z"/>
<g>
	<path class="st8" d="M102.1,64.3H79.7c-0.5,0-1-0.5-1.2-1.2l-0.2-23.8C78,37.8,76.6,37.6,76,39L53.8,89.3c-0.5,1.2,0.1,2.6,1.1,2.6
		l23.4-0.4c0.5,0,1,0.5,1.2,1.2l0.3,25c0.3,1.5,1.8,1.7,2.3,0.3l21.1-51.2C103.6,65.7,103,64.3,102.1,64.3z"/>
	<g>
		<path class="st9" d="M85.3,91.3l-6.7,0.3c0.4,0.1,0.8,0.6,0.9,1.2l0.3,25c0.3,1.5,1.8,1.7,2.3,0.3l0.5-1.3L85.3,91.3z"/>
		<path class="st9" d="M78.3,46.9v-7.6C78,37.8,76.6,37.6,76,39L53.8,89.3c-0.5,1.2,0.1,2.6,1.1,2.6l5.5-0.1L78.3,46.9z"/>
	</g>
</g>
<g id="Calque_12" class="st0">
	<g class="st1">
		<g>
			<path class="st10" d="M356.9,157h-79.4c-21.4,0-38.8-17.4-38.8-38.8V38.8c0-21.4,17.4-38.8,38.8-38.8h79.4
				c21.4,0,38.8,17.4,38.8,38.8v79.4C395.7,139.6,378.3,157,356.9,157z"/>
			<path class="st11" d="M356.9,157h-81.3c-18.2,0-32.9-14.7-32.9-32.9V44.8c0-21.4,17.4-38.8,38.8-38.8h82.9
				c17.3,0,31.3,14,31.3,31.3v80.9C395.7,139.6,378.3,157,356.9,157z"/>
			<path class="st12" d="M354.7,142.5h-74.9c-14.7,0-26.5-11.9-26.5-26.5V41c0-14.7,11.9-26.5,26.5-26.5h74.9
				c14.7,0,26.5,11.9,26.5,26.5v75C381.2,130.6,369.3,142.5,354.7,142.5z"/>
			<path class="st13" d="M260.7,123.5V48.6c0-14.7,11.9-26.5,26.5-26.5h74.9c5.4,0,10.4,1.6,14.6,4.4c-4.8-7.2-12.9-11.9-22.1-11.9
				h-74.9c-14.7,0-26.5,11.9-26.5,26.5V116c0,9.2,4.7,17.4,11.9,22.1C262.3,133.9,260.7,128.9,260.7,123.5z"/>
		</g>
		<path class="st13" d="M342.3,95.6c-0.6,10.8-8.8,18.4-21,18.4c-17.5,0-20.1-11.7-20.1-20.1S308.9,59.7,315,55
			c2.4-1.9,8.9,18.8,9.8,20.5c0.5,1,4.7-11.9,5.9-10.2C338.2,76.1,342.9,86.3,342.3,95.6z"/>
		<g>
			<path class="st8" d="M340.5,91.7c0,12.8-10.4,18.3-23.3,18.3s-24.8-5.6-23.3-18.3c1.6-12.9,8.8-36.2,17-44.3
				c4-4,9.6,21.6,11.6,23.7c1.8,1.8,5.4-12.5,6.3-9.4C331.8,71.9,340.5,83.2,340.5,91.7z"/>
			<path class="st14" d="M340.5,91.6c-0.6,10.8-8.8,18.4-21,18.4c-17.5,0-20.1-11.7-20.1-20.1s7.7-34.2,13.9-38.9
				c2.4-1.9,8.9,18.8,9.8,20.5c0.5,1,5.3-12.2,5.9-10.2C333.3,76.4,341.1,82.3,340.5,91.6z"/>
		</g>
	</g>
</g>
<g id="Calque_6" class="st0">
	<g id="Calque_8" class="st1">
	</g>
</g>
<g id="Calque_9" class="st0">
	<g class="st1">
		<g>
			<path class="st9" d="M104.9,225.5H51.7c-11.6,0-22.3,6.2-28.1,16.2L-3,287.8c-5.8,10-5.8,22.4,0,32.4l26.6,46.1
				c5.8,10,16.5,16.2,28.1,16.2h53.2c11.6,0,22.3-6.2,28.1-16.2l26.6-46.1c5.8-10,5.8-22.4,0-32.4l-26.6-46
				C127.2,231.7,116.5,225.5,104.9,225.5z"/>
			<path class="st8" d="M107,227.5H59.8c-11.8,0-22.7,6.4-28.4,16.8L6.6,289.4c-5.4,9.8-5.4,21.6,0,31.3l24.9,45.1
				c5.7,10.3,16.6,16.8,28.4,16.8H107c11.8,0,22.7-6.4,28.4-16.8l24.9-45.1c5.4-9.8,5.4-21.6,0-31.3l-24.9-45.1
				C129.7,234,118.8,227.5,107,227.5z"/>
			<path class="st14" d="M105.6,240.2H51c-5.9,0-11.3,3.1-14.2,8.2L9.4,295.8c-2.9,5.1-2.9,11.3,0,16.4l27.3,47.4
				c2.9,5.1,8.4,8.2,14.2,8.2h54.7c5.9,0,11.3-3.1,14.2-8.2l27.3-47.4c2.9-5.1,2.9-11.3,0-16.4l-27.3-47.4
				C116.9,243.4,111.5,240.2,105.6,240.2z"/>
			<path class="st7" d="M19.4,321.2c-2.9-5.1-2.9-11.3,0-16.4l27.3-47.4c2.9-5.1,8.4-8.2,14.2-8.2h54.7c1.8,0,3.5,0.3,5.2,0.8
				l-0.9-1.6c-2.9-5.1-8.4-8.2-14.2-8.2H50.9c-5.9,0-11.3,3.1-14.2,8.2L9.4,295.8c-2.9,5.1-2.9,11.3,0,16.4l27.3,47.4
				c2,3.5,5.3,6.1,9.1,7.4L19.4,321.2z"/>
		</g>
		<path class="st7" d="M105.7,293.6H83.4c-0.5,0-1-0.5-1.2-1.2L82,268.6c-0.3-1.5-1.8-1.7-2.3-0.3l-22.2,50.3
			c-0.5,1.2,0.1,2.6,1.1,2.6l23.4-0.4c0.5,0,1,0.5,1.2,1.2l0.3,25c0.3,1.5,1.8,1.7,2.3,0.3l21.1-51.2
			C107.3,295,106.7,293.6,105.7,293.6z"/>
		<g>
			<path class="st8" d="M102.1,289.9H79.7c-0.5,0-1-0.5-1.2-1.2l-0.2-23.8c-0.3-1.5-1.8-1.7-2.3-0.3l-22.2,50.3
				c-0.5,1.2,0.1,2.6,1.1,2.6l23.4-0.4c0.5,0,1,0.5,1.2,1.2l0.3,25c0.3,1.5,1.8,1.7,2.3,0.3l21.1-51.2
				C103.6,291.2,103,289.9,102.1,289.9z"/>
			<g>
				<path class="st9" d="M85.3,316.8l-6.7,0.3c0.4,0.1,0.8,0.6,0.9,1.2l0.3,25c0.3,1.5,1.8,1.7,2.3,0.3l0.5-1.3L85.3,316.8z"/>
				<path class="st9" d="M78.3,272.5v-7.6c-0.3-1.5-1.8-1.7-2.3-0.3l-22.2,50.3c-0.5,1.2,0.1,2.6,1.1,2.6l5.5-0.1L78.3,272.5z"/>
			</g>
		</g>
	</g>
</g>
<g id="Calque_7" class="st0">
	<g class="st1">
		<g>
			<g>
				<path class="st2" d="M-140.7,225.5h-53.2c-11.6,0-22.3,6.2-28.1,16.2l-26.6,46.1c-5.8,10-5.8,22.4,0,32.4l26.6,46.1
					c5.8,10,16.5,16.2,28.1,16.2h53.2c11.6,0,22.3-6.2,28.1-16.2l26.6-46.1c5.8-10,5.8-22.4,0-32.4l-26.6-46.1
					C-118.4,231.7-129.1,225.5-140.7,225.5z"/>
			</g>
			<g>
				<path class="st3" d="M-138.5,227.5h-47.2c-11.8,0-22.7,6.4-28.4,16.8l-24.9,45.1c-5.4,9.8-5.4,21.6,0,31.3l24.9,45.1
					c5.7,10.3,16.6,16.8,28.4,16.8h47.2c11.8,0,22.7-6.4,28.4-16.8l24.9-45.1c5.4-9.8,5.4-21.6,0-31.3l-24.9-45.1
					C-115.9,234-126.7,227.5-138.5,227.5z"/>
			</g>
			<path class="st4" d="M-140,240.2h-54.7c-5.9,0-11.3,3.1-14.2,8.2l-27.3,47.4c-2.9,5.1-2.9,11.3,0,16.4l27.3,47.4
				c2.9,5.1,8.4,8.2,14.2,8.2h54.7c5.9,0,11.3-3.1,14.2-8.2l27.3-47.4c2.9-5.1,2.9-11.3,0-16.4l-27.3-47.4
				C-128.7,243.4-134.1,240.2-140,240.2z"/>
			<path class="st5" d="M-226.2,321.2c-2.9-5.1-2.9-11.3,0-16.4l27.3-47.4c2.9-5.1,8.4-8.2,14.2-8.2h54.7c1.8,0,3.5,0.3,5.2,0.8
				l-0.9-1.6c-2.9-5.1-8.4-8.2-14.2-8.2h-54.7c-5.9,0-11.3,3.1-14.2,8.2l-27.3,47.4c-2.9,5.1-2.9,11.3,0,16.4l27.3,47.4
				c2,3.5,5.3,6.1,9.1,7.4L-226.2,321.2z"/>
		</g>
		<path class="st5" d="M-141.9,319.4c0,12.2-9.9,22.2-22.2,22.2s-22.2-9.9-22.2-22.2c0-10.2,15.3-38.5,20.5-47.8
			c0.7-1.3,2.6-1.3,3.4,0C-157.2,280.8-141.9,309.2-141.9,319.4z"/>
		<g>
			<g>
				<path class="st6" d="M-144.9,317.4c0,12.2-9.9,22.2-22.2,22.2s-22.2-9.9-22.2-22.2c0-10.2,15.3-38.5,20.5-47.8
					c0.7-1.3,2.6-1.3,3.4,0C-160.2,278.8-144.9,307.2-144.9,317.4z"/>
			</g>
			<path class="st5" d="M-148.1,316.6c0,11.1-9,20.2-20.2,20.2s8.4-9.9,8.4-21c0-6.7-3.1-21.9-5.5-32.9c-0.4-2,2.3-3,3.3-1.2
				C-156.2,292.9-148.1,309.5-148.1,316.6z"/>
		</g>
	</g>
</g>
<g id="Calque_5" class="st0">
	<path class="st15" d="M365.5-69.6h-99.8c-15.8,0-28.6-12.8-28.6-28.6v-77c0-8.2,4.5-15.8,11.8-19.7l56-30c6.6-3.5,14.5-3.5,21.1,0
		l56.3,30.1c7.3,3.9,11.8,11.5,11.8,19.7v77C394.1-82.4,381.2-69.6,365.5-69.6z"/>
	<path class="st16" d="M367.1-69.6H273c-14.9,0-27-12.6-27-28.1v-75.6c0-8.1,4.3-15.5,11.1-19.3L310-222c6.2-3.5,13.7-3.5,19.9,0
		l53.1,29.5c6.8,3.8,11.1,11.2,11.1,19.3v75.5C394.1-82.2,382-69.6,367.1-69.6z"/>
	<path class="st17" d="M364.8-84.7h-98.5c-7.9,0-14.2-6.4-14.2-14.2v-76.6c0-3.4,1.8-6.5,4.8-8.1l54.2-29.1c2.7-1.4,5.9-1.5,8.6,0
		l54.5,29.1c3,1.6,4.8,4.7,4.8,8.1v76.6C379.1-91.1,372.7-84.7,364.8-84.7z"/>
	<path class="st18" d="M267.1-93.9v-76.6c0-3.4,1.8-6.5,4.8-8.1l54.2-29.1c0.6-0.3,1.2-0.5,1.8-0.7l-8.2-4.4c-2.7-1.4-5.9-1.4-8.6,0
		l-54.2,29.1c-3,1.6-4.8,4.7-4.8,8.1V-99c0,7.9,6.4,14.2,14.2,14.2h4.1C268.3-87.2,267.1-90.4,267.1-93.9z"/>
	<path class="st18" d="M344-127.3c0,12.9-10.4,18.4-23.3,18.4s-23.3-5.5-23.3-18.4s7.1-37.7,17-44.3c4.7-3.1,9.6,21.6,11.6,23.7
		c1.8,1.9,5.4-12.5,6.3-9.4C335.3-147.1,344-135.8,344-127.3z"/>
	<path class="st18" d="M344-127.4c-0.6,10.8-8.8,18.4-21,18.4c-17.5,0-20.1-11.7-20.1-20.1c0-8.4,7.7-34.2,13.9-38.9
		c2.4-1.9,8.9,18.8,9.8,20.5c0.5,1,4.7-11.9,5.9-10.2C339.9-146.9,344.5-136.7,344-127.4z"/>
	<path class="st19" d="M341.6-131.3c0,12.9-10.4,18.4-23.3,18.4s-24.8-5.6-23.3-18.4c1.6-12.9,8.8-36.2,17-44.3
		c4-4,9.6,21.6,11.6,23.7c1.8,1.9,5.4-12.5,6.3-9.4C332.9-151.1,341.6-139.8,341.6-131.3z"/>
	<path class="st20" d="M341.6-131.4c-0.6,10.8-8.8,18.4-21,18.4c-17.5,0-20.1-11.7-20.1-20.1s7.7-34.2,13.9-38.9
		c2.4-1.9,8.9,18.8,9.8,20.5c0.5,1,5.3-12.2,5.9-10.2C334.4-146.6,342.1-140.7,341.6-131.4z"/>
	<path class="st15" d="M365.5-69.6h-99.8c-15.8,0-28.6-12.8-28.6-28.6v-77c0-8.2,4.5-15.8,11.8-19.7l56-30c6.6-3.5,14.5-3.5,21.1,0
		l56.3,30.1c7.3,3.9,11.8,11.5,11.8,19.7v77C394.1-82.4,381.2-69.6,365.5-69.6z"/>
	<path class="st16" d="M367.1-69.6H273c-14.9,0-27-12.6-27-28.1v-75.6c0-8.1,4.3-15.5,11.1-19.3L310-222c6.2-3.5,13.7-3.5,19.9,0
		l53.1,29.5c6.8,3.8,11.1,11.2,11.1,19.3v75.5C394.1-82.2,382-69.6,367.1-69.6z"/>
	<path class="st17" d="M364.8-84.7h-98.5c-7.9,0-14.2-6.4-14.2-14.2v-76.6c0-3.4,1.8-6.5,4.8-8.1l54.2-29.1c2.7-1.4,5.9-1.5,8.6,0
		l54.5,29.1c3,1.6,4.8,4.7,4.8,8.1v76.6C379.1-91.1,372.7-84.7,364.8-84.7z"/>
	<path class="st18" d="M267.1-93.9v-76.6c0-3.4,1.8-6.5,4.8-8.1l54.2-29.1c0.6-0.3,1.2-0.5,1.8-0.7l-8.2-4.4c-2.7-1.4-5.9-1.4-8.6,0
		l-54.2,29.1c-3,1.6-4.8,4.7-4.8,8.1V-99c0,7.9,6.4,14.2,14.2,14.2h4.1C268.3-87.2,267.1-90.4,267.1-93.9z"/>
	<path class="st18" d="M344-127.3c0,12.9-10.4,18.4-23.3,18.4s-23.3-5.5-23.3-18.4s7.1-37.7,17-44.3c4.7-3.1,9.6,21.6,11.6,23.7
		c1.8,1.9,5.4-12.5,6.3-9.4C335.3-147.1,344-135.8,344-127.3z"/>
	<path class="st18" d="M344-127.4c-0.6,10.8-8.8,18.4-21,18.4c-17.5,0-20.1-11.7-20.1-20.1c0-8.4,7.7-34.2,13.9-38.9
		c2.4-1.9,8.9,18.8,9.8,20.5c0.5,1,4.7-11.9,5.9-10.2C339.9-146.9,344.5-136.7,344-127.4z"/>
	<path class="st19" d="M341.6-131.3c0,12.9-10.4,18.4-23.3,18.4s-24.8-5.6-23.3-18.4c1.6-12.9,8.8-36.2,17-44.3
		c4-4,9.6,21.6,11.6,23.7c1.8,1.9,5.4-12.5,6.3-9.4C332.9-151.1,341.6-139.8,341.6-131.3z"/>
	<path class="st20" d="M341.6-131.4c-0.6,10.8-8.8,18.4-21,18.4c-17.5,0-20.1-11.7-20.1-20.1s7.7-34.2,13.9-38.9
		c2.4-1.9,8.9,18.8,9.8,20.5c0.5,1,5.3-12.2,5.9-10.2C334.4-146.6,342.1-140.7,341.6-131.4z"/>
</g>
<g id="Calque_10" class="st0">
	<g class="st1">
		<g>
			<path class="st10" d="M343.6,225.5h-53.2c-11.6,0-22.3,6.2-28.1,16.2l-26.6,46.1c-5.8,10-5.8,22.4,0,32.4l26.6,46.1
				c5.8,10,16.5,16.2,28.1,16.2h53.2c11.6,0,22.3-6.2,28.1-16.2l26.6-46.1c5.8-10,5.8-22.4,0-32.4l-26.6-46.1
				C365.9,231.7,355.2,225.5,343.6,225.5z"/>
			<path class="st11" d="M345.8,227.5h-47.2c-11.8,0-22.7,6.4-28.4,16.8l-24.9,45.1c-5.4,9.8-5.4,21.6,0,31.3l24.9,45.1
				c5.7,10.3,16.6,16.8,28.4,16.8h47.2c11.8,0,22.7-6.4,28.4-16.8l24.9-45.1c5.4-9.8,5.4-21.6,0-31.3l-24.9-45.1
				C368.5,234,357.6,227.5,345.8,227.5z"/>
			<path class="st12" d="M344.4,240.2h-54.7c-5.9,0-11.3,3.1-14.2,8.2l-27.3,47.4c-2.9,5.1-2.9,11.3,0,16.4l27.3,47.4
				c2.9,5.1,8.4,8.2,14.2,8.2h54.7c5.9,0,11.3-3.1,14.2-8.2l27.3-47.4c2.9-5.1,2.9-11.3,0-16.4l-27.3-47.4
				C355.7,243.4,350.2,240.2,344.4,240.2z"/>
			<path class="st13" d="M258.1,321.2c-2.9-5.1-2.9-11.3,0-16.4l27.3-47.4c2.9-5.1,8.4-8.2,14.2-8.2h54.7c1.8,0,3.5,0.3,5.2,0.8
				l-0.9-1.6c-2.9-5.1-8.4-8.2-14.2-8.2h-54.7c-5.9,0-11.3,3.1-14.2,8.2l-27.3,47.4c-2.9,5.1-2.9,11.3,0,16.4l27.3,47.4
				c2,3.5,5.3,6.1,9.1,7.4L258.1,321.2z"/>
		</g>
		<path class="st13" d="M343.8,317.4c-0.6,10.8-8.8,18.4-21,18.4c-17.5,0-20.1-11.7-20.1-20.1s7.7-34.2,13.9-38.9
			c2.4-1.9,8.9,18.8,9.8,20.5c0.5,1,4.7-11.9,5.9-10.2C339.7,297.8,344.4,308,343.8,317.4z"/>
		<g>
			<path class="st8" d="M340.5,317.2c0,12.8-10.4,18.3-23.3,18.3s-24.8-5.6-23.3-18.3c1.6-12.9,8.8-36.2,17-44.3
				c4-4,9.6,21.6,11.6,23.7c1.8,1.8,5.4-12.5,6.3-9.4C331.8,297.4,340.5,308.8,340.5,317.2z"/>
			<path class="st14" d="M340.5,317.2c-0.6,10.8-8.8,18.4-21,18.4c-17.5,0-20.1-11.7-20.1-20.1s7.7-34.2,13.9-38.9
				c2.4-1.9,8.9,18.8,9.8,20.5c0.5,1,5.3-12.2,5.9-10.2C333.3,301.9,341.1,307.8,340.5,317.2z"/>
		</g>
	</g>
</g>
</svg>
